<?xml version="1.0" encoding="utf-8"?>
<!-- Generator: Adobe Illustrator 26.0.3, SVG Export Plug-In . SVG Version: 6.00 Build 0)  -->
<svg version="1.1" id="Слой_1" xmlns="http://www.w3.org/2000/svg" xmlns:xlink="http://www.w3.org/1999/xlink" x="0px" y="0px"
	 viewBox="0 0 20 20" style="enable-background:new 0 0 20 20;" xml:space="preserve">
<style type="text/css">
	.st0{fill:#E5CF0A;}
</style>
<g>
	<path class="st0" d="M8.9,3.46L2.08,15.27c-0.49,0.85,0.12,1.91,1.1,1.91h13.63c0.98,0,1.6-1.06,1.1-1.91L11.1,3.46
		C10.61,2.61,9.39,2.61,8.9,3.46z"/>
</g>
<g>
	<path d="M9.46,14.81c0-0.3,0.24-0.53,0.54-0.53c0.31,0,0.55,0.25,0.55,0.56c0,0.29-0.26,0.53-0.55,0.53
		C9.68,15.37,9.46,15.12,9.46,14.81z M10.19,12.94c-0.01,0.13,0.01,0.48-0.2,0.48c-0.21,0-0.18-0.39-0.19-0.53L9.5,8.31
		c0-0.38,0.11-0.71,0.54-0.71c0.54,0,0.51,0.59,0.48,0.96L10.19,12.94z"/>
</g>
</svg>
